<?xml version="1.0" encoding="UTF-8" standalone="no"?>
<!DOCTYPE svg PUBLIC "-//W3C//DTD SVG 1.1//EN"
 "http://www.w3.org/Graphics/SVG/1.1/DTD/svg11.dtd">
<!-- Generated by graphviz version 2.43.0 (0)
 -->
<!-- Title: workflow Pages: 1 -->
<svg width="223pt" height="544pt"
 viewBox="0.00 0.00 223.00 544.00" xmlns="http://www.w3.org/2000/svg" xmlns:xlink="http://www.w3.org/1999/xlink">
<g id="graph0" class="graph" transform="scale(1 1) rotate(0) translate(4 540)">
<title>workflow</title>
<polygon fill="white" stroke="transparent" points="-4,4 -4,-540 219,-540 219,4 -4,4"/>
<text text-anchor="start" x="65" y="-8.8" font-family="Times,serif" font-weight="bold" font-size="14.00">MediaFlow</text>
<!-- place_new -->
<g id="node1" class="node">
<title>place_new</title>
<ellipse fill="lightgreen" stroke="lightBlue" cx="143" cy="-491" rx="72" ry="36"/>
<text text-anchor="start" x="135" y="-490.1" font-family="Arial" font-weight="bold" font-size="8.00">new</text>
<text text-anchor="middle" x="50" y="-529.6" font-family="Arial" font-size="8.00">Place new: </text>
</g>
<!-- transition_dispatch -->
<g id="node4" class="node">
<title>transition_dispatch</title>
<polygon fill="lightBlue" stroke="lightBlue" points="215,-419 71,-419 71,-347 215,-347 215,-419"/>
<text text-anchor="start" x="125.5" y="-385.6" font-family="Arial" font-weight="bold" font-size="8.00">dispatch</text>
<text text-anchor="start" x="130.5" y="-377.6" font-family="Arial" font-size="8.00">async: </text>
<text text-anchor="middle" x="35.5" y="-421.6" font-family="Arial" font-size="8.00">Transition dispatch: </text>
</g>
<!-- place_new&#45;&gt;transition_dispatch -->
<!-- new -->
<g id="edge1" class="edge">
<title>place_new&#45;&gt;transition_dispatch</title>
<path fill="none" stroke="#333333" d="M143,-455C143,-445.24 143,-434.56 143,-424.51"/>
<polygon fill="#333333" stroke="#333333" points="144.75,-424.33 143,-419.33 141.25,-424.33 144.75,-424.33"/>
</g>
<!-- place_dispatched -->
<g id="node2" class="node">
<title>place_dispatched</title>
<ellipse fill="lightgreen" stroke="lightBlue" cx="143" cy="-275" rx="72" ry="36"/>
<text text-anchor="start" x="120.5" y="-274.1" font-family="Arial" font-weight="bold" font-size="8.00">dispatched</text>
<text text-anchor="middle" x="38.5" y="-313.6" font-family="Arial" font-size="8.00">Place dispatched: </text>
</g>
<!-- transition_resize -->
<g id="node5" class="node">
<title>transition_resize</title>
<polygon fill="lightBlue" stroke="lightBlue" points="215,-203 71,-203 71,-131 215,-131 215,-203"/>
<text text-anchor="start" x="131.5" y="-166.1" font-family="Arial" font-weight="bold" font-size="8.00">resize</text>
<text text-anchor="middle" x="39.5" y="-205.6" font-family="Arial" font-size="8.00">Transition resize: </text>
</g>
<!-- place_dispatched&#45;&gt;transition_resize -->
<!-- dispatched -->
<g id="edge3" class="edge">
<title>place_dispatched&#45;&gt;transition_resize</title>
<path fill="none" stroke="#333333" d="M143,-239C143,-229.24 143,-218.56 143,-208.51"/>
<polygon fill="#333333" stroke="#333333" points="144.75,-208.33 143,-203.33 141.25,-208.33 144.75,-208.33"/>
</g>
<!-- place_resized -->
<g id="node3" class="node">
<title>place_resized</title>
<ellipse fill="lightgreen" stroke="lightBlue" cx="143" cy="-59" rx="72" ry="36"/>
<text text-anchor="start" x="129" y="-58.1" font-family="Arial" font-weight="bold" font-size="8.00">resized</text>
<text text-anchor="middle" x="45" y="-97.6" font-family="Arial" font-size="8.00">Place resized: </text>
</g>
<!-- transition_dispatch&#45;&gt;place_dispatched -->
<g id="edge2" class="edge">
<title>transition_dispatch&#45;&gt;place_dispatched</title>
<path fill="none" stroke="#333333" d="M143,-347C143,-337.24 143,-326.56 143,-316.51"/>
<polygon fill="#333333" stroke="#333333" points="144.75,-316.33 143,-311.33 141.25,-316.33 144.75,-316.33"/>
</g>
<!-- transition_resize&#45;&gt;place_resized -->
<g id="edge4" class="edge">
<title>transition_resize&#45;&gt;place_resized</title>
<path fill="none" stroke="#333333" d="M143,-131C143,-121.24 143,-110.56 143,-100.51"/>
<polygon fill="#333333" stroke="#333333" points="144.75,-100.33 143,-95.33 141.25,-100.33 144.75,-100.33"/>
</g>
</g>
</svg>
