<?xml version="1.0" encoding="UTF-8" standalone="no"?>
<!DOCTYPE svg PUBLIC "-//W3C//DTD SVG 1.1//EN"
 "http://www.w3.org/Graphics/SVG/1.1/DTD/svg11.dtd">
<!-- Generated by graphviz version 2.43.0 (0)
 -->
<!-- Title: workflow Pages: 1 -->
<svg width="564pt" height="544pt"
 viewBox="0.00 0.00 564.00 544.00" xmlns="http://www.w3.org/2000/svg" xmlns:xlink="http://www.w3.org/1999/xlink">
<g id="graph0" class="graph" transform="scale(1 1) rotate(0) translate(4 540)">
<title>workflow</title>
<polygon fill="white" stroke="transparent" points="-4,4 -4,-540 560,-540 560,4 -4,4"/>
<text text-anchor="start" x="205.5" y="-8.8" font-family="Times,serif" font-weight="bold" font-size="14.00">PokemonWorkflow</text>
<!-- place_basic -->
<g id="node1" class="node">
<title>place_basic</title>
<ellipse fill="lightgreen" stroke="lightBlue" cx="403" cy="-491" rx="72" ry="36"/>
<text text-anchor="start" x="392" y="-493.6" font-family="Arial" font-weight="bold" font-size="8.00">basic</text>
<text text-anchor="start" x="368" y="-485.6" font-family="Arial" font-style="italic" font-size="8.00">basic from app:load</text>
<text text-anchor="middle" x="203" y="-529.6" font-family="Arial" font-size="8.00">Place basic: minimal, basic data from https://pokeapi.co/api/v2/pokemon/</text>
</g>
<!-- transition_fetch -->
<g id="node5" class="node">
<title>transition_fetch</title>
<polygon fill="lightBlue" stroke="lightBlue" points="483,-419 323,-419 323,-347 483,-347 483,-419"/>
<text text-anchor="start" x="392.5" y="-393.6" font-family="Arial" font-weight="bold" font-size="8.00">fetch</text>
<text text-anchor="start" x="331" y="-385.6" font-family="Arial" font-size="8.00">completed: fail if fetchStatusCode != 200</text>
<text text-anchor="start" x="365" y="-377.6" font-family="Arial" font-style="italic" font-size="8.00">fetch individual JSON</text>
<text text-anchor="start" x="390.5" y="-369.6" font-family="Arial" font-size="8.00">async: </text>
<text text-anchor="middle" x="208.5" y="-421.6" font-family="Arial" font-size="8.00">Transition fetch: fetch from https://pokeapi.co/api/v2/pokemon//id</text>
</g>
<!-- place_basic&#45;&gt;transition_fetch -->
<!-- basic -->
<g id="edge1" class="edge">
<title>place_basic&#45;&gt;transition_fetch</title>
<path fill="none" stroke="#333333" d="M403,-455C403,-445.24 403,-434.56 403,-424.51"/>
<polygon fill="#333333" stroke="#333333" points="404.75,-424.33 403,-419.33 401.25,-424.33 404.75,-424.33"/>
</g>
<!-- place_detailed -->
<g id="node2" class="node">
<title>place_detailed</title>
<ellipse fill="lightgreen" stroke="lightBlue" cx="403" cy="-275" rx="72" ry="36"/>
<text text-anchor="start" x="387" y="-285.6" font-family="Arial" font-weight="bold" font-size="8.00">detailed</text>
<text text-anchor="start" x="370.5" y="-277.6" font-family="Arial" font-style="italic" font-size="8.00">details from JSON</text>
<text text-anchor="start" x="354.5" y="-261.6" font-family="Arial" font-size="8.00">Then: </text>
<text text-anchor="start" x="378.5" y="-261.6" font-family="Arial" text-decoration="underline" font-size="8.00">fail_fetch</text>
<text text-anchor="start" x="410.5" y="-261.6" font-family="Arial" font-size="8.00"> </text>
<text text-anchor="start" x="413.5" y="-261.6" font-family="Arial" text-decoration="underline" font-size="8.00">download</text>
<text text-anchor="start" x="448.5" y="-261.6" font-family="Arial" font-size="8.00"> </text>
<text text-anchor="middle" x="165.5" y="-313.6" font-family="Arial" font-size="8.00">Place detailed: details from https://pokeapi.co/api/v2/pokemon//{id} stored in Pokemon::details</text>
</g>
<!-- transition_download -->
<g id="node6" class="node">
<title>transition_download</title>
<polygon fill="lightBlue" stroke="lightBlue" points="394,-203 250,-203 250,-131 394,-131 394,-203"/>
<text text-anchor="start" x="302" y="-173.6" font-family="Arial" font-weight="bold" font-size="8.00">download</text>
<text text-anchor="start" x="288.5" y="-165.6" font-family="Arial" font-style="italic" font-size="8.00">valid http response</text>
<text text-anchor="start" x="309.5" y="-157.6" font-family="Arial" font-size="8.00">async: </text>
<text text-anchor="middle" x="212" y="-205.6" font-family="Arial" font-size="8.00">Transition download: </text>
</g>
<!-- place_detailed&#45;&gt;transition_download -->
<!-- detailed -->
<g id="edge3" class="edge">
<title>place_detailed&#45;&gt;transition_download</title>
<path fill="none" stroke="#333333" d="M377.82,-241.04C369.63,-230.32 360.46,-218.33 351.95,-207.2"/>
<polygon fill="#333333" stroke="#333333" points="353.28,-206.05 348.85,-203.14 350.5,-208.18 353.28,-206.05"/>
</g>
<!-- transition_fail_fetch -->
<g id="node7" class="node">
<title>transition_fail_fetch</title>
<polygon fill="lightBlue" stroke="lightBlue" points="556,-203 412,-203 412,-131 556,-131 556,-203"/>
<text text-anchor="start" x="465.5" y="-166.1" font-family="Arial" font-weight="bold" font-size="8.00">fail_fetch</text>
<text text-anchor="middle" x="375.5" y="-205.6" font-family="Arial" font-size="8.00">Transition fail_fetch: </text>
</g>
<!-- place_detailed&#45;&gt;transition_fail_fetch -->
<!-- detailed -->
<g id="edge5" class="edge">
<title>place_detailed&#45;&gt;transition_fail_fetch</title>
<path fill="none" stroke="#333333" d="M428.18,-241.04C436.37,-230.32 445.54,-218.33 454.05,-207.2"/>
<polygon fill="#333333" stroke="#333333" points="455.5,-208.18 457.15,-203.14 452.72,-206.05 455.5,-208.18"/>
</g>
<!-- place_downloaded -->
<g id="node3" class="node">
<title>place_downloaded</title>
<ellipse fill="lightgreen" stroke="lightBlue" cx="322" cy="-59" rx="72" ry="36"/>
<text text-anchor="start" x="297.5" y="-61.6" font-family="Arial" font-weight="bold" font-size="8.00">downloaded</text>
<text text-anchor="start" x="288" y="-53.6" font-family="Arial" font-style="italic" font-size="8.00">media downloaded</text>
<text text-anchor="middle" x="215" y="-97.6" font-family="Arial" font-size="8.00">Place downloaded: </text>
</g>
<!-- place_fetch_error -->
<g id="node4" class="node">
<title>place_fetch_error</title>
<ellipse fill="lightgreen" stroke="lightBlue" cx="484" cy="-59" rx="72" ry="36"/>
<text text-anchor="start" x="462" y="-61.6" font-family="Arial" font-weight="bold" font-size="8.00">fetch_error</text>
<text text-anchor="start" x="447.5" y="-53.6" font-family="Arial" font-style="italic" font-size="8.00">invalid http response</text>
<text text-anchor="middle" x="378.5" y="-97.6" font-family="Arial" font-size="8.00">Place fetch_error: </text>
</g>
<!-- transition_fetch&#45;&gt;place_detailed -->
<g id="edge2" class="edge">
<title>transition_fetch&#45;&gt;place_detailed</title>
<path fill="none" stroke="#333333" d="M403,-347C403,-337.24 403,-326.56 403,-316.51"/>
<polygon fill="#333333" stroke="#333333" points="404.75,-316.33 403,-311.33 401.25,-316.33 404.75,-316.33"/>
</g>
<!-- transition_download&#45;&gt;place_downloaded -->
<g id="edge4" class="edge">
<title>transition_download&#45;&gt;place_downloaded</title>
<path fill="none" stroke="#333333" d="M322,-131C322,-121.24 322,-110.56 322,-100.51"/>
<polygon fill="#333333" stroke="#333333" points="323.75,-100.33 322,-95.33 320.25,-100.33 323.75,-100.33"/>
</g>
<!-- transition_fail_fetch&#45;&gt;place_fetch_error -->
<g id="edge6" class="edge">
<title>transition_fail_fetch&#45;&gt;place_fetch_error</title>
<path fill="none" stroke="#333333" d="M484,-131C484,-121.24 484,-110.56 484,-100.51"/>
<polygon fill="#333333" stroke="#333333" points="485.75,-100.33 484,-95.33 482.25,-100.33 485.75,-100.33"/>
</g>
</g>
</svg>
