<?xml version="1.0" encoding="UTF-8" standalone="no"?>
<!DOCTYPE svg PUBLIC "-//W3C//DTD SVG 1.1//EN"
 "http://www.w3.org/Graphics/SVG/1.1/DTD/svg11.dtd">
<!-- Generated by graphviz version 2.43.0 (0)
 -->
<!-- Title: workflow Pages: 1 -->
<svg width="572pt" height="544pt"
 viewBox="0.00 0.00 572.00 544.00" xmlns="http://www.w3.org/2000/svg" xmlns:xlink="http://www.w3.org/1999/xlink">
<g id="graph0" class="graph" transform="scale(1 1) rotate(0) translate(4 540)">
<title>workflow</title>
<polygon fill="white" stroke="transparent" points="-4,4 -4,-540 568,-540 568,4 -4,4"/>
<text text-anchor="start" x="225" y="-8.8" font-family="Times,serif" font-weight="bold" font-size="14.00">PokemonWorkflow</text>
<!-- place_basic -->
<g id="node1" class="node">
<title>place_basic</title>
<ellipse fill="lightgreen" stroke="lightBlue" cx="402" cy="-491" rx="72" ry="36"/>
<text text-anchor="start" x="391" y="-493.6" font-family="Arial" font-weight="bold" font-size="8.00">basic</text>
<text text-anchor="start" x="367" y="-485.6" font-family="Arial" font-style="italic" font-size="8.00">basic from app:load</text>
<text text-anchor="middle" x="202" y="-529.6" font-family="Arial" font-size="8.00">Place basic: minimal, basic data from https://pokeapi.co/api/v2/pokemon/</text>
</g>
<!-- transition_fetch -->
<g id="node5" class="node">
<title>transition_fetch</title>
<polygon fill="lightBlue" stroke="lightBlue" points="482,-419 322,-419 322,-347 482,-347 482,-419"/>
<text text-anchor="start" x="391.5" y="-397.6" font-family="Arial" font-weight="bold" font-size="8.00">fetch</text>
<text text-anchor="start" x="330" y="-389.6" font-family="Arial" font-size="8.00">completed: fail if fetchStatusCode != 200</text>
<text text-anchor="start" x="364" y="-381.6" font-family="Arial" font-style="italic" font-size="8.00">fetch individual JSON</text>
<text text-anchor="start" x="353.5" y="-365.6" font-family="Arial" font-size="8.00">Then: </text>
<text text-anchor="start" x="377.5" y="-365.6" font-family="Arial" text-decoration="underline" font-size="8.00">fail_fetch</text>
<text text-anchor="start" x="409.5" y="-365.6" font-family="Arial" font-size="8.00"> </text>
<text text-anchor="start" x="412.5" y="-365.6" font-family="Arial" text-decoration="underline" font-size="8.00">download</text>
<text text-anchor="start" x="447.5" y="-365.6" font-family="Arial" font-size="8.00"> </text>
<text text-anchor="middle" x="208" y="-421.6" font-family="Arial" font-size="8.00">Transition fetch: fetch from https://pokeapi.co/api/v2/pokemon//id</text>
</g>
<!-- place_basic&#45;&gt;transition_fetch -->
<!-- basic -->
<g id="edge1" class="edge">
<title>place_basic&#45;&gt;transition_fetch</title>
<path fill="none" stroke="#333333" d="M402,-455C402,-445.24 402,-434.56 402,-424.51"/>
<polygon fill="#333333" stroke="#333333" points="403.75,-424.33 402,-419.33 400.25,-424.33 403.75,-424.33"/>
</g>
<!-- place_fetched -->
<g id="node2" class="node">
<title>place_fetched</title>
<ellipse fill="lightgreen" stroke="lightBlue" cx="402" cy="-275" rx="72" ry="36"/>
<text text-anchor="start" x="386.5" y="-277.6" font-family="Arial" font-weight="bold" font-size="8.00">fetched</text>
<text text-anchor="start" x="356.5" y="-269.6" font-family="Arial" font-style="italic" font-size="8.00">details loaded from JSON</text>
<text text-anchor="middle" x="165" y="-313.6" font-family="Arial" font-size="8.00">Place fetched: details from https://pokeapi.co/api/v2/pokemon//{id} stored in Pokemon::details</text>
</g>
<!-- transition_download -->
<g id="node6" class="node">
<title>transition_download</title>
<polygon fill="lightBlue" stroke="lightBlue" points="402,-203 222,-203 222,-131 402,-131 402,-203"/>
<text text-anchor="start" x="292" y="-177.6" font-family="Arial" font-weight="bold" font-size="8.00">download</text>
<text text-anchor="start" x="230" y="-169.6" font-family="Arial" font-size="8.00">completed: fail_download if statusCode != 200</text>
<text text-anchor="start" x="268.5" y="-161.6" font-family="Arial" text-decoration="underline" font-size="8.00">fetchStatusCode == 200</text>
<text text-anchor="start" x="278.5" y="-153.6" font-family="Arial" font-style="italic" font-size="8.00">valid http response</text>
<text text-anchor="middle" x="184" y="-205.6" font-family="Arial" font-size="8.00">Transition download: </text>
</g>
<!-- place_fetched&#45;&gt;transition_download -->
<!-- fetched -->
<g id="edge3" class="edge">
<title>place_fetched&#45;&gt;transition_download</title>
<path fill="none" stroke="#333333" d="M374.51,-241.62C365.22,-230.68 354.75,-218.35 345.08,-206.96"/>
<polygon fill="#333333" stroke="#333333" points="346.4,-205.81 341.83,-203.13 343.73,-208.07 346.4,-205.81"/>
</g>
<!-- transition_fail_fetch -->
<g id="node7" class="node">
<title>transition_fail_fetch</title>
<polygon fill="lightBlue" stroke="lightBlue" points="564,-203 420,-203 420,-131 564,-131 564,-203"/>
<text text-anchor="start" x="473.5" y="-169.6" font-family="Arial" font-weight="bold" font-size="8.00">fail_fetch</text>
<text text-anchor="start" x="449.5" y="-161.6" font-family="Arial" text-decoration="underline" font-size="8.00">fetchStatusCode != 200</text>
<text text-anchor="middle" x="383.5" y="-205.6" font-family="Arial" font-size="8.00">Transition fail_fetch: </text>
</g>
<!-- place_fetched&#45;&gt;transition_fail_fetch -->
<!-- fetched -->
<g id="edge5" class="edge">
<title>place_fetched&#45;&gt;transition_fail_fetch</title>
<path fill="none" stroke="#333333" d="M429.49,-241.62C438.78,-230.68 449.25,-218.35 458.92,-206.96"/>
<polygon fill="#333333" stroke="#333333" points="460.27,-208.07 462.17,-203.13 457.6,-205.81 460.27,-208.07"/>
</g>
<!-- place_downloaded -->
<g id="node3" class="node">
<title>place_downloaded</title>
<ellipse fill="lightgreen" stroke="lightBlue" cx="312" cy="-59" rx="72" ry="36"/>
<text text-anchor="start" x="287.5" y="-61.6" font-family="Arial" font-weight="bold" font-size="8.00">downloaded</text>
<text text-anchor="start" x="278" y="-53.6" font-family="Arial" font-style="italic" font-size="8.00">media downloaded</text>
<text text-anchor="middle" x="205" y="-97.6" font-family="Arial" font-size="8.00">Place downloaded: </text>
</g>
<!-- place_fetch_error -->
<g id="node4" class="node">
<title>place_fetch_error</title>
<ellipse fill="lightgreen" stroke="lightBlue" cx="492" cy="-59" rx="72" ry="36"/>
<text text-anchor="start" x="470" y="-61.6" font-family="Arial" font-weight="bold" font-size="8.00">fetch_error</text>
<text text-anchor="start" x="455.5" y="-53.6" font-family="Arial" font-style="italic" font-size="8.00">invalid http response</text>
<text text-anchor="middle" x="386.5" y="-97.6" font-family="Arial" font-size="8.00">Place fetch_error: </text>
</g>
<!-- transition_fetch&#45;&gt;place_fetched -->
<g id="edge2" class="edge">
<title>transition_fetch&#45;&gt;place_fetched</title>
<path fill="none" stroke="#333333" d="M402,-347C402,-337.24 402,-326.56 402,-316.51"/>
<polygon fill="#333333" stroke="#333333" points="403.75,-316.33 402,-311.33 400.25,-316.33 403.75,-316.33"/>
</g>
<!-- transition_download&#45;&gt;place_downloaded -->
<g id="edge4" class="edge">
<title>transition_download&#45;&gt;place_downloaded</title>
<path fill="none" stroke="#333333" d="M312,-131C312,-121.24 312,-110.56 312,-100.51"/>
<polygon fill="#333333" stroke="#333333" points="313.75,-100.33 312,-95.33 310.25,-100.33 313.75,-100.33"/>
</g>
<!-- transition_fail_fetch&#45;&gt;place_fetch_error -->
<g id="edge6" class="edge">
<title>transition_fail_fetch&#45;&gt;place_fetch_error</title>
<path fill="none" stroke="#333333" d="M492,-131C492,-121.24 492,-110.56 492,-100.51"/>
<polygon fill="#333333" stroke="#333333" points="493.75,-100.33 492,-95.33 490.25,-100.33 493.75,-100.33"/>
</g>
</g>
</svg>
