<?xml version="1.0" encoding="UTF-8" standalone="no"?>
<!DOCTYPE svg PUBLIC "-//W3C//DTD SVG 1.1//EN"
 "http://www.w3.org/Graphics/SVG/1.1/DTD/svg11.dtd">
<!-- Generated by graphviz version 2.43.0 (0)
 -->
<!-- Title: workflow Pages: 1 -->
<svg width="858pt" height="151pt"
 viewBox="0.00 0.00 857.95 151.00" xmlns="http://www.w3.org/2000/svg" xmlns:xlink="http://www.w3.org/1999/xlink">
<g id="graph0" class="graph" transform="scale(1 1) rotate(0) translate(4 147)">
<title>workflow</title>
<polygon fill="white" stroke="transparent" points="-4,4 -4,-147 853.95,-147 853.95,4 -4,4"/>
<text text-anchor="start" x="352.48" y="-8.8" font-family="Times,serif" font-weight="bold" font-size="14.00">PokemonWorkflow</text>
<!-- place_new -->
<g id="node1" class="node">
<title>place_new</title>
<ellipse fill="lightgreen" stroke="#333333" cx="44.81" cy="-71" rx="36" ry="18"/>
<text text-anchor="start" x="36.81" y="-70.1" font-family="Arial" font-weight="bold" font-size="8.00">new</text>
</g>
<!-- transition_0 -->
<g id="node7" class="node">
<title>transition_0</title>
<polygon fill="none" stroke="#333333" points="210.62,-91 125.62,-91 125.62,-51 210.62,-51 210.62,-91"/>
<text text-anchor="start" x="155.62" y="-81.6" font-family="Arial" font-weight="bold" font-size="8.00">fetch</text>
<text text-anchor="start" x="176.62" y="-81.6" font-family="Arial" baseline-shift="super" font-size="8.00">1</text>
<text text-anchor="start" x="139.12" y="-73.6" font-family="Arial" font-size="8.00">completed: fail if</text>
<text text-anchor="start" x="133.62" y="-65.6" font-family="Arial" font-size="8.00">fetchStatusCode !=</text>
<text text-anchor="start" x="161.12" y="-57.6" font-family="Arial" font-size="8.00">200</text>
</g>
<!-- place_new&#45;&gt;transition_0 -->
<!-- new -->
<g id="edge1" class="edge">
<title>place_new&#45;&gt;transition_0</title>
<path fill="none" stroke="#333333" d="M80.9,-71C93.13,-71 107.06,-71 120.1,-71"/>
<polygon fill="#333333" stroke="#333333" points="120.24,-72.75 125.24,-71 120.24,-69.25 120.24,-72.75"/>
</g>
<!-- place_fetched -->
<g id="node2" class="node">
<title>place_fetched</title>
<ellipse fill="lightgreen" stroke="#333333" cx="284.86" cy="-71" rx="38.48" ry="18"/>
<text text-anchor="start" x="269.36" y="-73.6" font-family="Arial" font-weight="bold" font-size="8.00">fetched</text>
<text text-anchor="start" x="264.36" y="-65.6" font-family="Arial" font-style="italic" font-size="8.00">json loaded</text>
</g>
<!-- transition_1 -->
<g id="node8" class="node">
<title>transition_1</title>
<polygon fill="none" stroke="#333333" points="472.1,-125 359.1,-125 359.1,-77 472.1,-77 472.1,-125"/>
<text text-anchor="start" x="393.6" y="-115.6" font-family="Arial" font-weight="bold" font-size="8.00">download</text>
<text text-anchor="start" x="433.6" y="-115.6" font-family="Arial" baseline-shift="super" font-size="8.00">1</text>
<text text-anchor="start" x="367.1" y="-107.6" font-family="Arial" font-size="8.00">completed: fail_download if</text>
<text text-anchor="start" x="382.6" y="-99.6" font-family="Arial" font-size="8.00">statusCode != 200</text>
<text text-anchor="start" x="379.1" y="-91.6" font-family="Arial" text-decoration="underline" font-size="8.00">subject.fetchStatusC</text>
<text text-anchor="start" x="395.1" y="-83.6" font-family="Arial" text-decoration="underline" font-size="8.00">ode == 200</text>
</g>
<!-- place_fetched&#45;&gt;transition_1 -->
<!-- fetched -->
<g id="edge3" class="edge">
<title>place_fetched&#45;&gt;transition_1</title>
<path fill="none" stroke="#333333" d="M319.35,-78.8C329.91,-81.26 341.92,-84.06 353.77,-86.83"/>
<polygon fill="#333333" stroke="#333333" points="353.57,-88.58 358.84,-88.01 354.37,-85.17 353.57,-88.58"/>
</g>
<!-- transition_2 -->
<g id="node9" class="node">
<title>transition_2</title>
<polygon fill="none" stroke="#333333" points="460.1,-59 371.1,-59 371.1,-23 460.1,-23 460.1,-59"/>
<text text-anchor="start" x="395.1" y="-47.6" font-family="Arial" font-weight="bold" font-size="8.00">fail_fetch</text>
<text text-anchor="start" x="432.1" y="-47.6" font-family="Arial" baseline-shift="super" font-size="8.00">1</text>
<text text-anchor="start" x="379.1" y="-39.6" font-family="Arial" text-decoration="underline" font-size="8.00">subject.fetchStatusC</text>
<text text-anchor="start" x="396.1" y="-31.6" font-family="Arial" text-decoration="underline" font-size="8.00">ode != 200</text>
</g>
<!-- place_fetched&#45;&gt;transition_2 -->
<!-- fetched -->
<g id="edge5" class="edge">
<title>place_fetched&#45;&gt;transition_2</title>
<path fill="none" stroke="#333333" d="M319.35,-63.2C333.54,-59.89 350.35,-55.97 365.87,-52.35"/>
<polygon fill="#333333" stroke="#333333" points="366.61,-53.98 371.08,-51.14 365.81,-50.57 366.61,-53.98"/>
</g>
<!-- place_downloaded -->
<g id="node3" class="node">
<title>place_downloaded</title>
<ellipse fill="lightgreen" stroke="#333333" cx="559.08" cy="-101" rx="50.96" ry="18"/>
<text text-anchor="start" x="534.58" y="-103.6" font-family="Arial" font-weight="bold" font-size="8.00">downloaded</text>
<text text-anchor="start" x="529.08" y="-95.6" font-family="Arial" font-style="italic" font-size="8.00">resize requested</text>
</g>
<!-- transition_3 -->
<g id="node10" class="node">
<title>transition_3</title>
<polygon fill="none" stroke="#333333" points="724.06,-119 646.06,-119 646.06,-83 724.06,-83 724.06,-119"/>
<text text-anchor="start" x="654.06" y="-100.1" font-family="Arial" font-weight="bold" font-size="8.00">resize finished</text>
<text text-anchor="start" x="712.06" y="-100.1" font-family="Arial" baseline-shift="super" font-size="8.00">1</text>
</g>
<!-- place_downloaded&#45;&gt;transition_3 -->
<!-- downloaded -->
<g id="edge7" class="edge">
<title>place_downloaded&#45;&gt;transition_3</title>
<path fill="none" stroke="#333333" d="M610.15,-101C620.34,-101 630.97,-101 640.89,-101"/>
<polygon fill="#333333" stroke="#333333" points="641.01,-102.75 646.01,-101 641.01,-99.25 641.01,-102.75"/>
</g>
<!-- place_finished -->
<g id="node4" class="node">
<title>place_finished</title>
<ellipse fill="lightgreen" stroke="#333333" cx="805.01" cy="-101" rx="44.89" ry="18"/>
<text text-anchor="start" x="788.51" y="-103.6" font-family="Arial" font-weight="bold" font-size="8.00">finished</text>
<text text-anchor="start" x="779.51" y="-95.6" font-family="Arial" font-style="italic" font-size="8.00">resize finished</text>
</g>
<!-- place_fetch_error -->
<g id="node5" class="node">
<title>place_fetch_error</title>
<ellipse fill="lightgreen" stroke="#333333" cx="559.08" cy="-41" rx="36" ry="18"/>
<text text-anchor="start" x="537.08" y="-40.1" font-family="Arial" font-weight="bold" font-size="8.00">fetch_error</text>
</g>
<!-- place_download_error -->
<g id="node6" class="node">
<title>place_download_error</title>
<ellipse fill="lightgreen" stroke="#333333" cx="44.81" cy="-125" rx="44.62" ry="18"/>
<text text-anchor="start" x="13.31" y="-124.1" font-family="Arial" font-weight="bold" font-size="8.00">download_error</text>
</g>
<!-- transition_0&#45;&gt;place_fetched -->
<g id="edge2" class="edge">
<title>transition_0&#45;&gt;place_fetched</title>
<path fill="none" stroke="#333333" d="M210.87,-71C220.8,-71 231.41,-71 241.37,-71"/>
<polygon fill="#333333" stroke="#333333" points="241.51,-72.75 246.51,-71 241.51,-69.25 241.51,-72.75"/>
</g>
<!-- transition_1&#45;&gt;place_downloaded -->
<g id="edge4" class="edge">
<title>transition_1&#45;&gt;place_downloaded</title>
<path fill="none" stroke="#333333" d="M472.11,-101C482.13,-101 492.58,-101 502.6,-101"/>
<polygon fill="#333333" stroke="#333333" points="502.79,-102.75 507.79,-101 502.79,-99.25 502.79,-102.75"/>
</g>
<!-- transition_2&#45;&gt;place_fetch_error -->
<g id="edge6" class="edge">
<title>transition_2&#45;&gt;place_fetch_error</title>
<path fill="none" stroke="#333333" d="M460.2,-41C478.45,-41 499.54,-41 517.45,-41"/>
<polygon fill="#333333" stroke="#333333" points="517.91,-42.75 522.91,-41 517.91,-39.25 517.91,-42.75"/>
</g>
<!-- transition_3&#45;&gt;place_finished -->
<g id="edge8" class="edge">
<title>transition_3&#45;&gt;place_finished</title>
<path fill="none" stroke="#333333" d="M724.35,-101C733.98,-101 744.44,-101 754.52,-101"/>
<polygon fill="#333333" stroke="#333333" points="754.76,-102.75 759.76,-101 754.76,-99.25 754.76,-102.75"/>
</g>
</g>
</svg>
