<?xml version="1.0" encoding="UTF-8" standalone="no"?>
<!DOCTYPE svg PUBLIC "-//W3C//DTD SVG 1.1//EN"
 "http://www.w3.org/Graphics/SVG/1.1/DTD/svg11.dtd">
<!-- Generated by graphviz version 2.43.0 (0)
 -->
<!-- Title: workflow Pages: 1 -->
<svg width="889pt" height="151pt"
 viewBox="0.00 0.00 888.95 151.00" xmlns="http://www.w3.org/2000/svg" xmlns:xlink="http://www.w3.org/1999/xlink">
<g id="graph0" class="graph" transform="scale(1 1) rotate(0) translate(4 147)">
<title>workflow</title>
<polygon fill="white" stroke="transparent" points="-4,4 -4,-147 884.95,-147 884.95,4 -4,4"/>
<text text-anchor="start" x="367.98" y="-8.8" font-family="Times,serif" font-weight="bold" font-size="14.00">PokemonWorkflow</text>
<!-- place_new -->
<g id="node1" class="node">
<title>place_new</title>
<ellipse fill="lightgreen" stroke="#333333" cx="44.81" cy="-71" rx="36" ry="18"/>
<text text-anchor="start" x="36.81" y="-70.1" font-family="Arial" font-weight="bold" font-size="8.00">new</text>
</g>
<!-- transition_0 -->
<g id="node7" class="node">
<title>transition_0</title>
<polygon fill="none" stroke="#333333" points="241.62,-89 125.62,-89 125.62,-53 241.62,-53 241.62,-89"/>
<text text-anchor="start" x="171.12" y="-77.6" font-family="Arial" font-weight="bold" font-size="8.00">fetch</text>
<text text-anchor="start" x="192.12" y="-77.6" font-family="Arial" baseline-shift="super" font-size="8.00">1</text>
<text text-anchor="start" x="133.62" y="-69.6" font-family="Arial" font-size="8.00">completed: fail if statusCode</text>
<text text-anchor="start" x="172.12" y="-61.6" font-family="Arial" font-size="8.00">!= 200</text>
</g>
<!-- place_new&#45;&gt;transition_0 -->
<!-- new -->
<g id="edge1" class="edge">
<title>place_new&#45;&gt;transition_0</title>
<path fill="none" stroke="#333333" d="M81.04,-71C93,-71 106.73,-71 120.16,-71"/>
<polygon fill="#333333" stroke="#333333" points="120.48,-72.75 125.48,-71 120.48,-69.25 120.48,-72.75"/>
</g>
<!-- place_fetched -->
<g id="node2" class="node">
<title>place_fetched</title>
<ellipse fill="lightgreen" stroke="#333333" cx="315.86" cy="-71" rx="38.48" ry="18"/>
<text text-anchor="start" x="300.36" y="-73.6" font-family="Arial" font-weight="bold" font-size="8.00">fetched</text>
<text text-anchor="start" x="295.36" y="-65.6" font-family="Arial" font-style="italic" font-size="8.00">json loaded</text>
</g>
<!-- transition_1 -->
<g id="node8" class="node">
<title>transition_1</title>
<polygon fill="none" stroke="#333333" points="503.1,-125 390.1,-125 390.1,-77 503.1,-77 503.1,-125"/>
<text text-anchor="start" x="424.6" y="-115.6" font-family="Arial" font-weight="bold" font-size="8.00">download</text>
<text text-anchor="start" x="464.6" y="-115.6" font-family="Arial" baseline-shift="super" font-size="8.00">1</text>
<text text-anchor="start" x="398.1" y="-107.6" font-family="Arial" font-size="8.00">completed: fail_download if</text>
<text text-anchor="start" x="413.6" y="-99.6" font-family="Arial" font-size="8.00">statusCode != 200</text>
<text text-anchor="start" x="412.6" y="-91.6" font-family="Arial" text-decoration="underline" font-size="8.00">subject.statusCode</text>
<text text-anchor="start" x="435.1" y="-83.6" font-family="Arial" text-decoration="underline" font-size="8.00">!= 200</text>
</g>
<!-- place_fetched&#45;&gt;transition_1 -->
<!-- fetched -->
<g id="edge3" class="edge">
<title>place_fetched&#45;&gt;transition_1</title>
<path fill="none" stroke="#333333" d="M350.35,-78.8C360.91,-81.26 372.92,-84.06 384.77,-86.83"/>
<polygon fill="#333333" stroke="#333333" points="384.57,-88.58 389.84,-88.01 385.37,-85.17 384.57,-88.58"/>
</g>
<!-- transition_2 -->
<g id="node9" class="node">
<title>transition_2</title>
<polygon fill="none" stroke="#333333" points="488.6,-59 404.6,-59 404.6,-23 488.6,-23 488.6,-59"/>
<text text-anchor="start" x="426.1" y="-47.6" font-family="Arial" font-weight="bold" font-size="8.00">fail_fetch</text>
<text text-anchor="start" x="463.1" y="-47.6" font-family="Arial" baseline-shift="super" font-size="8.00">1</text>
<text text-anchor="start" x="412.6" y="-39.6" font-family="Arial" text-decoration="underline" font-size="8.00">subject.statusCode</text>
<text text-anchor="start" x="435.1" y="-31.6" font-family="Arial" text-decoration="underline" font-size="8.00">!= 200</text>
</g>
<!-- place_fetched&#45;&gt;transition_2 -->
<!-- fetched -->
<g id="edge5" class="edge">
<title>place_fetched&#45;&gt;transition_2</title>
<path fill="none" stroke="#333333" d="M350.35,-63.2C365.34,-59.7 383.25,-55.53 399.48,-51.75"/>
<polygon fill="#333333" stroke="#333333" points="399.98,-53.43 404.46,-50.59 399.19,-50.02 399.98,-53.43"/>
</g>
<!-- place_downloaded -->
<g id="node3" class="node">
<title>place_downloaded</title>
<ellipse fill="lightgreen" stroke="#333333" cx="590.08" cy="-101" rx="50.96" ry="18"/>
<text text-anchor="start" x="565.58" y="-103.6" font-family="Arial" font-weight="bold" font-size="8.00">downloaded</text>
<text text-anchor="start" x="560.08" y="-95.6" font-family="Arial" font-style="italic" font-size="8.00">resize requested</text>
</g>
<!-- transition_3 -->
<g id="node10" class="node">
<title>transition_3</title>
<polygon fill="none" stroke="#333333" points="755.06,-119 677.06,-119 677.06,-83 755.06,-83 755.06,-119"/>
<text text-anchor="start" x="685.06" y="-100.1" font-family="Arial" font-weight="bold" font-size="8.00">resize finished</text>
<text text-anchor="start" x="743.06" y="-100.1" font-family="Arial" baseline-shift="super" font-size="8.00">1</text>
</g>
<!-- place_downloaded&#45;&gt;transition_3 -->
<!-- downloaded -->
<g id="edge7" class="edge">
<title>place_downloaded&#45;&gt;transition_3</title>
<path fill="none" stroke="#333333" d="M641.15,-101C651.34,-101 661.97,-101 671.89,-101"/>
<polygon fill="#333333" stroke="#333333" points="672.01,-102.75 677.01,-101 672.01,-99.25 672.01,-102.75"/>
</g>
<!-- place_finished -->
<g id="node4" class="node">
<title>place_finished</title>
<ellipse fill="lightgreen" stroke="#333333" cx="836.01" cy="-101" rx="44.89" ry="18"/>
<text text-anchor="start" x="819.51" y="-103.6" font-family="Arial" font-weight="bold" font-size="8.00">finished</text>
<text text-anchor="start" x="810.51" y="-95.6" font-family="Arial" font-style="italic" font-size="8.00">resize finished</text>
</g>
<!-- place_fetch_error -->
<g id="node5" class="node">
<title>place_fetch_error</title>
<ellipse fill="lightgreen" stroke="#333333" cx="590.08" cy="-41" rx="36" ry="18"/>
<text text-anchor="start" x="568.08" y="-40.1" font-family="Arial" font-weight="bold" font-size="8.00">fetch_error</text>
</g>
<!-- place_download_error -->
<g id="node6" class="node">
<title>place_download_error</title>
<ellipse fill="lightgreen" stroke="#333333" cx="44.81" cy="-125" rx="44.62" ry="18"/>
<text text-anchor="start" x="13.31" y="-124.1" font-family="Arial" font-weight="bold" font-size="8.00">download_error</text>
</g>
<!-- transition_0&#45;&gt;place_fetched -->
<g id="edge2" class="edge">
<title>transition_0&#45;&gt;place_fetched</title>
<path fill="none" stroke="#333333" d="M241.75,-71C251.99,-71 262.5,-71 272.24,-71"/>
<polygon fill="#333333" stroke="#333333" points="272.27,-72.75 277.27,-71 272.27,-69.25 272.27,-72.75"/>
</g>
<!-- transition_1&#45;&gt;place_downloaded -->
<g id="edge4" class="edge">
<title>transition_1&#45;&gt;place_downloaded</title>
<path fill="none" stroke="#333333" d="M503.11,-101C513.13,-101 523.58,-101 533.6,-101"/>
<polygon fill="#333333" stroke="#333333" points="533.79,-102.75 538.79,-101 533.79,-99.25 533.79,-102.75"/>
</g>
<!-- transition_2&#45;&gt;place_fetch_error -->
<g id="edge6" class="edge">
<title>transition_2&#45;&gt;place_fetch_error</title>
<path fill="none" stroke="#333333" d="M488.9,-41C507.69,-41 529.85,-41 548.54,-41"/>
<polygon fill="#333333" stroke="#333333" points="548.72,-42.75 553.72,-41 548.72,-39.25 548.72,-42.75"/>
</g>
<!-- transition_3&#45;&gt;place_finished -->
<g id="edge8" class="edge">
<title>transition_3&#45;&gt;place_finished</title>
<path fill="none" stroke="#333333" d="M755.35,-101C764.98,-101 775.44,-101 785.52,-101"/>
<polygon fill="#333333" stroke="#333333" points="785.76,-102.75 790.76,-101 785.76,-99.25 785.76,-102.75"/>
</g>
</g>
</svg>
