<?xml version="1.0" encoding="UTF-8" standalone="no"?>
<!DOCTYPE svg PUBLIC "-//W3C//DTD SVG 1.1//EN"
 "http://www.w3.org/Graphics/SVG/1.1/DTD/svg11.dtd">
<!-- Generated by graphviz version 2.43.0 (0)
 -->
<!-- Title: workflow Pages: 1 -->
<svg width="836pt" height="133pt"
 viewBox="0.00 0.00 836.33 133.00" xmlns="http://www.w3.org/2000/svg" xmlns:xlink="http://www.w3.org/1999/xlink">
<g id="graph0" class="graph" transform="scale(1 1) rotate(0) translate(4 129)">
<title>workflow</title>
<polygon fill="white" stroke="transparent" points="-4,4 -4,-129 832.33,-129 832.33,4 -4,4"/>
<text text-anchor="start" x="341.66" y="-8.8" font-family="Times,serif" font-weight="bold" font-size="14.00">PokemonWorkflow</text>
<!-- place_new -->
<g id="node1" class="node">
<title>place_new</title>
<ellipse fill="lightgreen" stroke="#333333" cx="36" cy="-71" rx="36" ry="18"/>
<text text-anchor="start" x="28" y="-70.1" font-family="Arial" font-weight="bold" font-size="8.00">new</text>
</g>
<!-- transition_0 -->
<g id="node6" class="node">
<title>transition_0</title>
<polygon fill="none" stroke="#333333" points="193,-91 108,-91 108,-51 193,-51 193,-91"/>
<text text-anchor="start" x="140" y="-81.6" font-family="Arial" font-weight="bold" font-size="8.00">fetch</text>
<text text-anchor="start" x="121.5" y="-73.6" font-family="Arial" font-size="8.00">completed: fail if</text>
<text text-anchor="start" x="116" y="-65.6" font-family="Arial" font-size="8.00">fetchStatusCode !=</text>
<text text-anchor="start" x="143.5" y="-57.6" font-family="Arial" font-size="8.00">200</text>
</g>
<!-- place_new&#45;&gt;transition_0 -->
<!-- new -->
<g id="edge1" class="edge">
<title>place_new&#45;&gt;transition_0</title>
<path fill="none" stroke="#333333" d="M72.29,-71C81.84,-71 92.32,-71 102.41,-71"/>
<polygon fill="#333333" stroke="#333333" points="102.64,-72.75 107.64,-71 102.64,-69.25 102.64,-72.75"/>
</g>
<!-- place_fetched -->
<g id="node2" class="node">
<title>place_fetched</title>
<ellipse fill="lightgreen" stroke="#333333" cx="267.24" cy="-71" rx="38.48" ry="18"/>
<text text-anchor="start" x="251.74" y="-73.6" font-family="Arial" font-weight="bold" font-size="8.00">fetched</text>
<text text-anchor="start" x="246.74" y="-65.6" font-family="Arial" font-style="italic" font-size="8.00">json loaded</text>
</g>
<!-- transition_1 -->
<g id="node7" class="node">
<title>transition_1</title>
<polygon fill="none" stroke="#333333" points="454.47,-125 341.47,-125 341.47,-77 454.47,-77 454.47,-125"/>
<text text-anchor="start" x="377.97" y="-115.6" font-family="Arial" font-weight="bold" font-size="8.00">download</text>
<text text-anchor="start" x="349.47" y="-107.6" font-family="Arial" font-size="8.00">completed: fail_download if</text>
<text text-anchor="start" x="364.97" y="-99.6" font-family="Arial" font-size="8.00">statusCode != 200</text>
<text text-anchor="start" x="362.47" y="-91.6" font-family="Arial" text-decoration="underline" font-size="8.00">fetchStatusCode ==</text>
<text text-anchor="start" x="390.97" y="-83.6" font-family="Arial" text-decoration="underline" font-size="8.00">200</text>
</g>
<!-- place_fetched&#45;&gt;transition_1 -->
<!-- fetched -->
<g id="edge3" class="edge">
<title>place_fetched&#45;&gt;transition_1</title>
<path fill="none" stroke="#333333" d="M301.72,-78.8C312.29,-81.26 324.3,-84.06 336.15,-86.83"/>
<polygon fill="#333333" stroke="#333333" points="335.95,-88.58 341.22,-88.01 336.74,-85.17 335.95,-88.58"/>
</g>
<!-- transition_2 -->
<g id="node8" class="node">
<title>transition_2</title>
<polygon fill="none" stroke="#333333" points="440.47,-59 355.47,-59 355.47,-23 440.47,-23 440.47,-59"/>
<text text-anchor="start" x="379.47" y="-47.6" font-family="Arial" font-weight="bold" font-size="8.00">fail_fetch</text>
<text text-anchor="start" x="363.47" y="-39.6" font-family="Arial" text-decoration="underline" font-size="8.00">fetchStatusCode !=</text>
<text text-anchor="start" x="390.97" y="-31.6" font-family="Arial" text-decoration="underline" font-size="8.00">200</text>
</g>
<!-- place_fetched&#45;&gt;transition_2 -->
<!-- fetched -->
<g id="edge5" class="edge">
<title>place_fetched&#45;&gt;transition_2</title>
<path fill="none" stroke="#333333" d="M301.72,-63.2C316.58,-59.73 334.31,-55.6 350.42,-51.85"/>
<polygon fill="#333333" stroke="#333333" points="350.89,-53.54 355.36,-50.7 350.1,-50.13 350.89,-53.54"/>
</g>
<!-- place_downloaded -->
<g id="node3" class="node">
<title>place_downloaded</title>
<ellipse fill="lightgreen" stroke="#333333" cx="541.46" cy="-101" rx="50.96" ry="18"/>
<text text-anchor="start" x="516.96" y="-103.6" font-family="Arial" font-weight="bold" font-size="8.00">downloaded</text>
<text text-anchor="start" x="511.46" y="-95.6" font-family="Arial" font-style="italic" font-size="8.00">resize requested</text>
</g>
<!-- transition_3 -->
<g id="node9" class="node">
<title>transition_3</title>
<polygon fill="none" stroke="#333333" points="702.44,-119 628.44,-119 628.44,-83 702.44,-83 702.44,-119"/>
<text text-anchor="start" x="636.44" y="-100.1" font-family="Arial" font-weight="bold" font-size="8.00">resize finished</text>
</g>
<!-- place_downloaded&#45;&gt;transition_3 -->
<!-- downloaded -->
<g id="edge7" class="edge">
<title>place_downloaded&#45;&gt;transition_3</title>
<path fill="none" stroke="#333333" d="M592.78,-101C602.95,-101 613.53,-101 623.34,-101"/>
<polygon fill="#333333" stroke="#333333" points="623.39,-102.75 628.39,-101 623.39,-99.25 623.39,-102.75"/>
</g>
<!-- place_finished -->
<g id="node4" class="node">
<title>place_finished</title>
<ellipse fill="lightgreen" stroke="#333333" cx="783.38" cy="-101" rx="44.89" ry="18"/>
<text text-anchor="start" x="766.88" y="-103.6" font-family="Arial" font-weight="bold" font-size="8.00">finished</text>
<text text-anchor="start" x="757.88" y="-95.6" font-family="Arial" font-style="italic" font-size="8.00">resize finished</text>
</g>
<!-- place_fetch_error -->
<g id="node5" class="node">
<title>place_fetch_error</title>
<ellipse fill="lightgreen" stroke="#333333" cx="541.46" cy="-41" rx="36" ry="18"/>
<text text-anchor="start" x="519.46" y="-40.1" font-family="Arial" font-weight="bold" font-size="8.00">fetch_error</text>
</g>
<!-- transition_0&#45;&gt;place_fetched -->
<g id="edge2" class="edge">
<title>transition_0&#45;&gt;place_fetched</title>
<path fill="none" stroke="#333333" d="M193.25,-71C203.18,-71 213.78,-71 223.75,-71"/>
<polygon fill="#333333" stroke="#333333" points="223.89,-72.75 228.89,-71 223.89,-69.25 223.89,-72.75"/>
</g>
<!-- transition_1&#45;&gt;place_downloaded -->
<g id="edge4" class="edge">
<title>transition_1&#45;&gt;place_downloaded</title>
<path fill="none" stroke="#333333" d="M454.49,-101C464.51,-101 474.95,-101 484.97,-101"/>
<polygon fill="#333333" stroke="#333333" points="485.17,-102.75 490.17,-101 485.17,-99.25 485.17,-102.75"/>
</g>
<!-- transition_2&#45;&gt;place_fetch_error -->
<g id="edge6" class="edge">
<title>transition_2&#45;&gt;place_fetch_error</title>
<path fill="none" stroke="#333333" d="M440.66,-41C459.43,-41 481.51,-41 500.13,-41"/>
<polygon fill="#333333" stroke="#333333" points="500.28,-42.75 505.28,-41 500.28,-39.25 500.28,-42.75"/>
</g>
<!-- transition_3&#45;&gt;place_finished -->
<g id="edge8" class="edge">
<title>transition_3&#45;&gt;place_finished</title>
<path fill="none" stroke="#333333" d="M702.49,-101C712.2,-101 722.87,-101 733.17,-101"/>
<polygon fill="#333333" stroke="#333333" points="733.19,-102.75 738.19,-101 733.19,-99.25 733.19,-102.75"/>
</g>
</g>
</svg>
