<?xml version="1.0" encoding="UTF-8" standalone="no"?>
<!DOCTYPE svg PUBLIC "-//W3C//DTD SVG 1.1//EN"
 "http://www.w3.org/Graphics/SVG/1.1/DTD/svg11.dtd">
<!-- Generated by graphviz version 2.43.0 (0)
 -->
<!-- Title: workflow Pages: 1 -->
<svg width="616pt" height="205pt"
 viewBox="0.00 0.00 616.36 205.00" xmlns="http://www.w3.org/2000/svg" xmlns:xlink="http://www.w3.org/1999/xlink">
<g id="graph0" class="graph" transform="scale(1 1) rotate(0) translate(4 201)">
<title>workflow</title>
<polygon fill="white" stroke="transparent" points="-4,4 -4,-201 612.36,-201 612.36,4 -4,4"/>
<text text-anchor="start" x="231.68" y="-8.8" font-family="Times,serif" font-weight="bold" font-size="14.00">PokemonWorkflow</text>
<!-- place_new -->
<g id="node1" class="node">
<title>place_new</title>
<ellipse fill="lightgreen" stroke="#333333" cx="44.81" cy="-125" rx="36" ry="18"/>
<text text-anchor="start" x="36.81" y="-124.1" font-family="Arial" font-weight="bold" font-size="8.00">new</text>
</g>
<!-- transition_0 -->
<g id="node7" class="node">
<title>transition_0</title>
<polygon fill="none" stroke="#333333" points="241.62,-143 125.62,-143 125.62,-107 241.62,-107 241.62,-143"/>
<text text-anchor="start" x="171.12" y="-131.6" font-family="Arial" font-weight="bold" font-size="8.00">fetch</text>
<text text-anchor="start" x="192.12" y="-131.6" font-family="Arial" baseline-shift="super" font-size="8.00">1</text>
<text text-anchor="start" x="133.62" y="-123.6" font-family="Arial" font-size="8.00">completed: fail if statusCode</text>
<text text-anchor="start" x="172.12" y="-115.6" font-family="Arial" font-size="8.00">!= 200</text>
</g>
<!-- place_new&#45;&gt;transition_0 -->
<!-- new -->
<g id="edge1" class="edge">
<title>place_new&#45;&gt;transition_0</title>
<path fill="none" stroke="#333333" d="M81.04,-125C93,-125 106.73,-125 120.16,-125"/>
<polygon fill="#333333" stroke="#333333" points="120.48,-126.75 125.48,-125 120.48,-123.25 120.48,-126.75"/>
</g>
<!-- place_fetched -->
<g id="node2" class="node">
<title>place_fetched</title>
<ellipse fill="lightgreen" stroke="#333333" cx="313.62" cy="-125" rx="36" ry="18"/>
<text text-anchor="start" x="298.12" y="-124.1" font-family="Arial" font-weight="bold" font-size="8.00">fetched</text>
</g>
<!-- transition_1 -->
<g id="node8" class="node">
<title>transition_1</title>
<polygon fill="none" stroke="#333333" points="498.62,-179 385.62,-179 385.62,-131 498.62,-131 498.62,-179"/>
<text text-anchor="start" x="420.12" y="-169.6" font-family="Arial" font-weight="bold" font-size="8.00">download</text>
<text text-anchor="start" x="460.12" y="-169.6" font-family="Arial" baseline-shift="super" font-size="8.00">1</text>
<text text-anchor="start" x="393.62" y="-161.6" font-family="Arial" font-size="8.00">completed: fail_download if</text>
<text text-anchor="start" x="409.12" y="-153.6" font-family="Arial" font-size="8.00">statusCode != 200</text>
<text text-anchor="start" x="408.12" y="-145.6" font-family="Arial" text-decoration="underline" font-size="8.00">subject.statusCode</text>
<text text-anchor="start" x="430.62" y="-137.6" font-family="Arial" text-decoration="underline" font-size="8.00">!= 200</text>
</g>
<!-- place_fetched&#45;&gt;transition_1 -->
<!-- fetched -->
<g id="edge3" class="edge">
<title>place_fetched&#45;&gt;transition_1</title>
<path fill="none" stroke="#333333" d="M346.54,-132.57C356.92,-135.03 368.8,-137.85 380.55,-140.64"/>
<polygon fill="#333333" stroke="#333333" points="380.31,-142.38 385.58,-141.83 381.12,-138.97 380.31,-142.38"/>
</g>
<!-- transition_2 -->
<g id="node9" class="node">
<title>transition_2</title>
<polygon fill="none" stroke="#333333" points="484.12,-113 400.12,-113 400.12,-77 484.12,-77 484.12,-113"/>
<text text-anchor="start" x="421.62" y="-101.6" font-family="Arial" font-weight="bold" font-size="8.00">fail_fetch</text>
<text text-anchor="start" x="458.62" y="-101.6" font-family="Arial" baseline-shift="super" font-size="8.00">1</text>
<text text-anchor="start" x="408.12" y="-93.6" font-family="Arial" text-decoration="underline" font-size="8.00">subject.statusCode</text>
<text text-anchor="start" x="430.62" y="-85.6" font-family="Arial" text-decoration="underline" font-size="8.00">!= 200</text>
</g>
<!-- place_fetched&#45;&gt;transition_2 -->
<!-- fetched -->
<g id="edge5" class="edge">
<title>place_fetched&#45;&gt;transition_2</title>
<path fill="none" stroke="#333333" d="M346.54,-117.43C361.27,-113.94 379.03,-109.73 395.16,-105.9"/>
<polygon fill="#333333" stroke="#333333" points="395.64,-107.58 400.11,-104.73 394.84,-104.18 395.64,-107.58"/>
</g>
<!-- place_downloaded -->
<g id="node3" class="node">
<title>place_downloaded</title>
<ellipse fill="lightgreen" stroke="#333333" cx="571.49" cy="-155" rx="36.74" ry="18"/>
<text text-anchor="start" x="546.99" y="-154.1" font-family="Arial" font-weight="bold" font-size="8.00">downloaded</text>
</g>
<!-- place_finished -->
<g id="node4" class="node">
<title>place_finished</title>
<ellipse fill="lightgreen" stroke="#333333" cx="313.62" cy="-41" rx="36" ry="18"/>
<text text-anchor="start" x="297.12" y="-40.1" font-family="Arial" font-weight="bold" font-size="8.00">finished</text>
</g>
<!-- transition_3 -->
<g id="node10" class="node">
<title>transition_3</title>
<polygon fill="none" stroke="#333333" points="480.12,-59 404.12,-59 404.12,-23 480.12,-23 480.12,-59"/>
<text text-anchor="start" x="412.12" y="-40.1" font-family="Arial" font-weight="bold" font-size="8.00">fail_download</text>
<text text-anchor="start" x="468.12" y="-40.1" font-family="Arial" baseline-shift="super" font-size="8.00">1</text>
</g>
<!-- place_finished&#45;&gt;transition_3 -->
<!-- finished -->
<g id="edge7" class="edge">
<title>place_finished&#45;&gt;transition_3</title>
<path fill="none" stroke="#333333" d="M349.86,-41C364.97,-41 382.74,-41 398.58,-41"/>
<polygon fill="#333333" stroke="#333333" points="398.87,-42.75 403.87,-41 398.87,-39.25 398.87,-42.75"/>
</g>
<!-- place_fetch_error -->
<g id="node5" class="node">
<title>place_fetch_error</title>
<ellipse fill="lightgreen" stroke="#333333" cx="571.49" cy="-68" rx="36" ry="18"/>
<text text-anchor="start" x="549.49" y="-67.1" font-family="Arial" font-weight="bold" font-size="8.00">fetch_error</text>
</g>
<!-- place_download_error -->
<g id="node6" class="node">
<title>place_download_error</title>
<ellipse fill="lightgreen" stroke="#333333" cx="44.81" cy="-179" rx="44.62" ry="18"/>
<text text-anchor="start" x="13.31" y="-178.1" font-family="Arial" font-weight="bold" font-size="8.00">download_error</text>
</g>
<!-- transition_0&#45;&gt;place_fetched -->
<g id="edge2" class="edge">
<title>transition_0&#45;&gt;place_fetched</title>
<path fill="none" stroke="#333333" d="M241.88,-125C252.1,-125 262.56,-125 272.19,-125"/>
<polygon fill="#333333" stroke="#333333" points="272.44,-126.75 277.44,-125 272.44,-123.25 272.44,-126.75"/>
</g>
<!-- transition_1&#45;&gt;place_downloaded -->
<g id="edge4" class="edge">
<title>transition_1&#45;&gt;place_downloaded</title>
<path fill="none" stroke="#333333" d="M498.99,-155C509.14,-155 519.56,-155 529.2,-155"/>
<polygon fill="#333333" stroke="#333333" points="529.46,-156.75 534.46,-155 529.46,-153.25 529.46,-156.75"/>
</g>
<!-- transition_2&#45;&gt;place_fetch_error -->
<g id="edge6" class="edge">
<title>transition_2&#45;&gt;place_fetch_error</title>
<path fill="none" stroke="#333333" d="M484.12,-86.31C499.8,-82.98 517.6,-79.21 532.94,-75.96"/>
<polygon fill="#333333" stroke="#333333" points="533.51,-77.63 538.04,-74.88 532.79,-74.2 533.51,-77.63"/>
</g>
<!-- transition_3&#45;&gt;place_fetch_error -->
<g id="edge8" class="edge">
<title>transition_3&#45;&gt;place_fetch_error</title>
<path fill="none" stroke="#333333" d="M480.31,-48.88C496.81,-52.38 516.2,-56.49 532.77,-60"/>
<polygon fill="#333333" stroke="#333333" points="532.56,-61.75 537.81,-61.07 533.28,-58.32 532.56,-61.75"/>
</g>
</g>
</svg>
